<mxfile host="65bd71144e">
    <diagram id="FEkrW_VgLdJTkVRw_G52" name="Page-1">
        <mxGraphModel dx="1792" dy="988" grid="1" gridSize="10" guides="1" tooltips="1" connect="1" arrows="1" fold="1" page="1" pageScale="1" pageWidth="850" pageHeight="1100" math="0" shadow="0">
            <root>
                <mxCell id="0"/>
                <mxCell id="1" parent="0"/>
                <mxCell id="3" value="&lt;font style=&quot;font-size: 24px;&quot;&gt;Lists&lt;/font&gt;" style="swimlane;whiteSpace=wrap;html=1;" vertex="1" parent="1">
                    <mxGeometry x="80" y="80" width="570" height="530" as="geometry"/>
                </mxCell>
                <mxCell id="39" value="" style="rounded=0;whiteSpace=wrap;html=1;" vertex="1" parent="3">
                    <mxGeometry x="10" y="440" width="460" height="60" as="geometry"/>
                </mxCell>
                <mxCell id="41" value="&lt;font style=&quot;font-size: 24px;&quot;&gt;&lt;font color=&quot;#b3b3b3&quot;&gt;Add List&lt;/font&gt;&lt;br&gt;&lt;/font&gt;" style="text;html=1;strokeColor=none;fillColor=none;align=left;verticalAlign=middle;whiteSpace=wrap;rounded=0;labelBorderColor=default;" vertex="1" parent="3">
                    <mxGeometry x="140" y="455" width="300" height="30" as="geometry"/>
                </mxCell>
                <mxCell id="52" value="" style="group" vertex="1" connectable="0" parent="3">
                    <mxGeometry x="10" y="440" width="100" height="60" as="geometry"/>
                </mxCell>
                <mxCell id="49" value="" style="rounded=0;whiteSpace=wrap;html=1;labelBorderColor=default;fontSize=36;fillColor=none;" vertex="1" parent="52">
                    <mxGeometry width="50" height="60" as="geometry"/>
                </mxCell>
                <mxCell id="40" value="" style="ellipse;whiteSpace=wrap;html=1;aspect=fixed;fillColor=#f5f5f5;fontColor=#333333;strokeColor=#666666;" vertex="1" parent="52">
                    <mxGeometry x="10" y="12" width="30" height="30" as="geometry"/>
                </mxCell>
                <mxCell id="50" value="" style="rounded=0;whiteSpace=wrap;html=1;labelBorderColor=default;fontSize=36;fillColor=none;" vertex="1" parent="52">
                    <mxGeometry x="50" width="50" height="60" as="geometry"/>
                </mxCell>
                <mxCell id="51" value="" style="html=1;verticalLabelPosition=bottom;labelBackgroundColor=#ffffff;verticalAlign=top;shadow=0;dashed=0;strokeWidth=2;shape=mxgraph.ios7.misc.down;strokeColor=#0080f0;labelBorderColor=default;fontSize=36;fillColor=none;" vertex="1" parent="52">
                    <mxGeometry x="59.5" y="19.2" width="31" height="21.599999999999998" as="geometry"/>
                </mxCell>
                <mxCell id="121" value="" style="verticalLabelPosition=bottom;verticalAlign=top;html=1;shape=mxgraph.basic.rect;fillColor2=none;strokeWidth=1;size=20;indent=5;labelBorderColor=default;fontSize=24;fontColor=#FFFFFF;fillColor=none;" vertex="1" parent="3">
                    <mxGeometry x="410" y="450" width="40" height="40" as="geometry"/>
                </mxCell>
                <mxCell id="120" value="" style="verticalLabelPosition=bottom;verticalAlign=top;html=1;shadow=0;dashed=0;strokeWidth=1;shape=mxgraph.ios.iAddIcon;fillColor=#7AdF78;fillColor2=#1A9917;strokeColor=#ffffff;sketch=0;labelBorderColor=default;fontSize=24;fontColor=#FFFFFF;" vertex="1" parent="3">
                    <mxGeometry x="415" y="455" width="30" height="30" as="geometry"/>
                </mxCell>
                <mxCell id="5" value="" style="rounded=0;whiteSpace=wrap;html=1;" vertex="1" parent="3">
                    <mxGeometry x="10" y="40" width="500" height="60" as="geometry"/>
                </mxCell>
                <mxCell id="6" value="" style="ellipse;whiteSpace=wrap;html=1;aspect=fixed;fillColor=#60a917;fontColor=#ffffff;strokeColor=#2D7600;" vertex="1" parent="3">
                    <mxGeometry x="20" y="50" width="40" height="40" as="geometry"/>
                </mxCell>
                <mxCell id="7" value="&lt;font style=&quot;font-size: 24px;&quot;&gt;Chores&lt;/font&gt;" style="text;html=1;strokeColor=none;fillColor=none;align=left;verticalAlign=middle;whiteSpace=wrap;rounded=0;labelBorderColor=default;" vertex="1" parent="3">
                    <mxGeometry x="80" y="55" width="300" height="30" as="geometry"/>
                </mxCell>
                <mxCell id="8" value="" style="rounded=0;whiteSpace=wrap;html=1;" vertex="1" parent="3">
                    <mxGeometry x="410" y="50" width="40" height="40" as="geometry"/>
                </mxCell>
                <mxCell id="10" value="" style="sketch=0;pointerEvents=1;shadow=0;dashed=0;html=1;strokeColor=none;fillColor=#505050;labelPosition=center;verticalLabelPosition=bottom;verticalAlign=top;outlineConnect=0;align=center;shape=mxgraph.office.concepts.writing_pencil;labelBorderColor=default;fontSize=24;" vertex="1" parent="3">
                    <mxGeometry x="417.5" y="57.5" width="25" height="25" as="geometry"/>
                </mxCell>
                <mxCell id="14" value="" style="rounded=0;whiteSpace=wrap;html=1;" vertex="1" parent="3">
                    <mxGeometry x="10" y="120" width="500" height="60" as="geometry"/>
                </mxCell>
                <mxCell id="15" value="" style="ellipse;whiteSpace=wrap;html=1;aspect=fixed;fillColor=#FF0000;fontColor=#ffffff;strokeColor=#2D7600;" vertex="1" parent="3">
                    <mxGeometry x="20" y="130" width="40" height="40" as="geometry"/>
                </mxCell>
                <mxCell id="16" value="&lt;font style=&quot;font-size: 24px;&quot;&gt;School&lt;/font&gt;" style="text;html=1;strokeColor=none;fillColor=none;align=left;verticalAlign=middle;whiteSpace=wrap;rounded=0;labelBorderColor=default;" vertex="1" parent="3">
                    <mxGeometry x="80" y="135" width="300" height="30" as="geometry"/>
                </mxCell>
                <mxCell id="17" value="" style="rounded=0;whiteSpace=wrap;html=1;" vertex="1" parent="3">
                    <mxGeometry x="410" y="130" width="40" height="40" as="geometry"/>
                </mxCell>
                <mxCell id="18" value="" style="sketch=0;pointerEvents=1;shadow=0;dashed=0;html=1;strokeColor=none;fillColor=#505050;labelPosition=center;verticalLabelPosition=bottom;verticalAlign=top;outlineConnect=0;align=center;shape=mxgraph.office.concepts.writing_pencil;labelBorderColor=default;fontSize=24;" vertex="1" parent="3">
                    <mxGeometry x="417.5" y="137.5" width="25" height="25" as="geometry"/>
                </mxCell>
                <mxCell id="20" value="" style="rounded=0;whiteSpace=wrap;html=1;" vertex="1" parent="3">
                    <mxGeometry x="10" y="200" width="500" height="60" as="geometry"/>
                </mxCell>
                <mxCell id="21" value="" style="ellipse;whiteSpace=wrap;html=1;aspect=fixed;fillColor=#FFFF00;fontColor=#ffffff;strokeColor=#2D7600;" vertex="1" parent="3">
                    <mxGeometry x="20" y="210" width="40" height="40" as="geometry"/>
                </mxCell>
                <mxCell id="22" value="&lt;font style=&quot;font-size: 24px;&quot;&gt;Work&lt;/font&gt;" style="text;html=1;strokeColor=none;fillColor=none;align=left;verticalAlign=middle;whiteSpace=wrap;rounded=0;labelBorderColor=default;" vertex="1" parent="3">
                    <mxGeometry x="80" y="215" width="300" height="30" as="geometry"/>
                </mxCell>
                <mxCell id="23" value="" style="rounded=0;whiteSpace=wrap;html=1;" vertex="1" parent="3">
                    <mxGeometry x="410" y="210" width="40" height="40" as="geometry"/>
                </mxCell>
                <mxCell id="24" value="" style="sketch=0;pointerEvents=1;shadow=0;dashed=0;html=1;strokeColor=none;fillColor=#505050;labelPosition=center;verticalLabelPosition=bottom;verticalAlign=top;outlineConnect=0;align=center;shape=mxgraph.office.concepts.writing_pencil;labelBorderColor=default;fontSize=24;" vertex="1" parent="3">
                    <mxGeometry x="417.5" y="217.5" width="25" height="25" as="geometry"/>
                </mxCell>
                <mxCell id="32" value="" style="rounded=0;whiteSpace=wrap;html=1;" vertex="1" parent="3">
                    <mxGeometry x="10" y="360" width="500" height="60" as="geometry"/>
                </mxCell>
                <mxCell id="33" value="" style="ellipse;whiteSpace=wrap;html=1;aspect=fixed;fillColor=#7F00FF;fontColor=#ffffff;strokeColor=#2D7600;" vertex="1" parent="3">
                    <mxGeometry x="20" y="370" width="40" height="40" as="geometry"/>
                </mxCell>
                <mxCell id="34" value="&lt;font style=&quot;font-size: 24px;&quot;&gt;Workout&lt;/font&gt;" style="text;html=1;strokeColor=none;fillColor=none;align=left;verticalAlign=middle;whiteSpace=wrap;rounded=0;labelBorderColor=default;" vertex="1" parent="3">
                    <mxGeometry x="80" y="375" width="300" height="30" as="geometry"/>
                </mxCell>
                <mxCell id="35" value="" style="rounded=0;whiteSpace=wrap;html=1;" vertex="1" parent="3">
                    <mxGeometry x="410" y="370" width="40" height="40" as="geometry"/>
                </mxCell>
                <mxCell id="36" value="" style="sketch=0;pointerEvents=1;shadow=0;dashed=0;html=1;strokeColor=none;fillColor=#505050;labelPosition=center;verticalLabelPosition=bottom;verticalAlign=top;outlineConnect=0;align=center;shape=mxgraph.office.concepts.writing_pencil;labelBorderColor=default;fontSize=24;" vertex="1" parent="3">
                    <mxGeometry x="417.5" y="377.5" width="25" height="25" as="geometry"/>
                </mxCell>
                <mxCell id="137" value="" style="group" vertex="1" connectable="0" parent="3">
                    <mxGeometry x="460" y="130" width="40" height="40" as="geometry"/>
                </mxCell>
                <mxCell id="138" value="" style="verticalLabelPosition=bottom;verticalAlign=top;html=1;shape=mxgraph.basic.x;labelBorderColor=default;fontSize=24;fontColor=#B3B3B3;fillColor=none;" vertex="1" parent="137">
                    <mxGeometry x="5" y="5" width="30" height="30" as="geometry"/>
                </mxCell>
                <mxCell id="139" value="" style="verticalLabelPosition=bottom;verticalAlign=top;html=1;shape=mxgraph.basic.rect;fillColor2=none;strokeWidth=1;size=20;indent=5;labelBorderColor=default;fontSize=24;fontColor=#B3B3B3;fillColor=none;" vertex="1" parent="137">
                    <mxGeometry width="40" height="40" as="geometry"/>
                </mxCell>
                <mxCell id="130" value="" style="group" vertex="1" connectable="0" parent="3">
                    <mxGeometry x="460" y="210" width="40" height="40" as="geometry"/>
                </mxCell>
                <mxCell id="127" value="" style="verticalLabelPosition=bottom;verticalAlign=top;html=1;shape=mxgraph.basic.x;labelBorderColor=default;fontSize=24;fontColor=#B3B3B3;fillColor=none;" vertex="1" parent="130">
                    <mxGeometry x="5" y="5" width="30" height="30" as="geometry"/>
                </mxCell>
                <mxCell id="126" value="" style="verticalLabelPosition=bottom;verticalAlign=top;html=1;shape=mxgraph.basic.rect;fillColor2=none;strokeWidth=1;size=20;indent=5;labelBorderColor=default;fontSize=24;fontColor=#B3B3B3;fillColor=none;" vertex="1" parent="130">
                    <mxGeometry width="40" height="40" as="geometry"/>
                </mxCell>
                <mxCell id="134" value="" style="group" vertex="1" connectable="0" parent="3">
                    <mxGeometry x="460" y="370" width="40" height="40" as="geometry"/>
                </mxCell>
                <mxCell id="135" value="" style="verticalLabelPosition=bottom;verticalAlign=top;html=1;shape=mxgraph.basic.x;labelBorderColor=default;fontSize=24;fontColor=#B3B3B3;fillColor=none;" vertex="1" parent="134">
                    <mxGeometry x="5" y="5" width="30" height="30" as="geometry"/>
                </mxCell>
                <mxCell id="136" value="" style="verticalLabelPosition=bottom;verticalAlign=top;html=1;shape=mxgraph.basic.rect;fillColor2=none;strokeWidth=1;size=20;indent=5;labelBorderColor=default;fontSize=24;fontColor=#B3B3B3;fillColor=none;" vertex="1" parent="134">
                    <mxGeometry width="40" height="40" as="geometry"/>
                </mxCell>
                <mxCell id="57" value="&lt;font style=&quot;font-size: 24px;&quot;&gt;Lists&lt;/font&gt;" style="swimlane;whiteSpace=wrap;html=1;" vertex="1" parent="1">
                    <mxGeometry x="760" y="80" width="540" height="320" as="geometry"/>
                </mxCell>
                <mxCell id="100" value="" style="group" vertex="1" connectable="0" parent="57">
                    <mxGeometry x="20" y="40" width="480" height="80" as="geometry"/>
                </mxCell>
                <mxCell id="99" value="&lt;font color=&quot;#ffffff&quot;&gt;Take Out Trash&lt;/font&gt;" style="text;html=1;strokeColor=none;fillColor=none;align=left;verticalAlign=middle;whiteSpace=wrap;rounded=0;labelBorderColor=default;fontSize=24;fontColor=#333333;" vertex="1" parent="100">
                    <mxGeometry x="10" width="290" height="80" as="geometry"/>
                </mxCell>
                <mxCell id="124" value="" style="group" vertex="1" connectable="0" parent="100">
                    <mxGeometry y="10" width="480" height="60" as="geometry"/>
                </mxCell>
                <mxCell id="90" value="" style="verticalLabelPosition=bottom;verticalAlign=top;html=1;shape=mxgraph.basic.half_circle;labelBorderColor=default;fontSize=36;fontColor=#333333;fillColor=none;rotation=-90;" vertex="1" parent="124">
                    <mxGeometry x="425" y="5" width="60" height="50" as="geometry"/>
                </mxCell>
                <mxCell id="91" value="" style="rounded=0;whiteSpace=wrap;html=1;labelBorderColor=default;fontSize=36;fontColor=#333333;fillColor=none;" vertex="1" parent="124">
                    <mxGeometry width="430" height="60" as="geometry"/>
                </mxCell>
                <mxCell id="92" value="" style="verticalLabelPosition=bottom;verticalAlign=top;html=1;shape=mxgraph.basic.x;labelBorderColor=default;fontSize=36;fontColor=#333333;fillColor=none;" vertex="1" parent="124">
                    <mxGeometry x="440" y="17.5" width="30" height="25" as="geometry"/>
                </mxCell>
                <mxCell id="93" value="" style="verticalLabelPosition=bottom;verticalAlign=top;html=1;shape=mxgraph.basic.rect;fillColor2=none;strokeWidth=1;size=20;indent=5;labelBorderColor=default;fontSize=36;fontColor=#333333;fillColor=none;" vertex="1" parent="124">
                    <mxGeometry x="370" width="60" height="60" as="geometry"/>
                </mxCell>
                <mxCell id="94" value="" style="verticalLabelPosition=bottom;verticalAlign=top;html=1;shape=mxgraph.basic.tick;labelBorderColor=default;fontSize=36;fontColor=#333333;fillColor=none;" vertex="1" parent="124">
                    <mxGeometry x="385" y="12.5" width="30" height="35" as="geometry"/>
                </mxCell>
                <mxCell id="96" value="" style="verticalLabelPosition=bottom;verticalAlign=top;html=1;shape=mxgraph.basic.rect;fillColor2=none;strokeWidth=1;size=20;indent=5;labelBorderColor=default;fontSize=36;fontColor=#333333;fillColor=none;" vertex="1" parent="124">
                    <mxGeometry x="310" width="60" height="60" as="geometry"/>
                </mxCell>
                <mxCell id="98" value="" style="sketch=0;pointerEvents=1;shadow=0;dashed=0;html=1;strokeColor=none;fillColor=#505050;labelPosition=center;verticalLabelPosition=bottom;verticalAlign=top;outlineConnect=0;align=center;shape=mxgraph.office.concepts.writing_pencil;labelBorderColor=default;fontSize=36;fontColor=#333333;" vertex="1" parent="124">
                    <mxGeometry x="320" y="10" width="40" height="40" as="geometry"/>
                </mxCell>
                <mxCell id="118" value="&lt;font color=&quot;#b3b3b3&quot;&gt;Get It Done!&lt;/font&gt;" style="text;html=1;strokeColor=none;fillColor=none;align=left;verticalAlign=middle;whiteSpace=wrap;rounded=0;labelBorderColor=default;fontSize=24;fontColor=#333333;" vertex="1" parent="57">
                    <mxGeometry x="30" y="217.5" width="290" height="80" as="geometry"/>
                </mxCell>
                <mxCell id="122" value="" style="group" vertex="1" connectable="0" parent="57">
                    <mxGeometry x="20" y="227.5" width="480" height="60" as="geometry"/>
                </mxCell>
                <mxCell id="111" value="" style="verticalLabelPosition=bottom;verticalAlign=top;html=1;shape=mxgraph.basic.half_circle;labelBorderColor=default;fontSize=36;fontColor=#333333;fillColor=none;rotation=-90;" vertex="1" parent="122">
                    <mxGeometry x="425" y="5" width="60" height="50" as="geometry"/>
                </mxCell>
                <mxCell id="112" value="" style="rounded=0;whiteSpace=wrap;html=1;labelBorderColor=default;fontSize=36;fontColor=#333333;fillColor=none;" vertex="1" parent="122">
                    <mxGeometry width="430" height="60" as="geometry"/>
                </mxCell>
                <mxCell id="119" value="" style="verticalLabelPosition=bottom;verticalAlign=top;html=1;shadow=0;dashed=0;strokeWidth=1;shape=mxgraph.ios.iAddIcon;fillColor=#7AdF78;fillColor2=#1A9917;strokeColor=#ffffff;sketch=0;labelBorderColor=default;fontSize=24;fontColor=#FFFFFF;" vertex="1" parent="122">
                    <mxGeometry x="440" y="13.75" width="30" height="32.5" as="geometry"/>
                </mxCell>
                <mxCell id="101" value="" style="group" vertex="1" connectable="0" parent="1">
                    <mxGeometry x="780" y="210" width="480" height="80" as="geometry"/>
                </mxCell>
                <mxCell id="109" value="&lt;font color=&quot;#ffffff&quot;&gt;Do Dishes&lt;/font&gt;" style="text;html=1;strokeColor=none;fillColor=none;align=left;verticalAlign=middle;whiteSpace=wrap;rounded=0;labelBorderColor=default;fontSize=24;fontColor=#333333;" vertex="1" parent="101">
                    <mxGeometry x="10" width="290" height="80" as="geometry"/>
                </mxCell>
                <mxCell id="123" value="" style="group" vertex="1" connectable="0" parent="101">
                    <mxGeometry y="10" width="480" height="60" as="geometry"/>
                </mxCell>
                <mxCell id="102" value="" style="verticalLabelPosition=bottom;verticalAlign=top;html=1;shape=mxgraph.basic.half_circle;labelBorderColor=default;fontSize=36;fontColor=#333333;fillColor=none;rotation=-90;" vertex="1" parent="123">
                    <mxGeometry x="425" y="5" width="60" height="50" as="geometry"/>
                </mxCell>
                <mxCell id="103" value="" style="rounded=0;whiteSpace=wrap;html=1;labelBorderColor=default;fontSize=36;fontColor=#333333;fillColor=none;" vertex="1" parent="123">
                    <mxGeometry width="430" height="60" as="geometry"/>
                </mxCell>
                <mxCell id="104" value="" style="verticalLabelPosition=bottom;verticalAlign=top;html=1;shape=mxgraph.basic.x;labelBorderColor=default;fontSize=36;fontColor=#333333;fillColor=none;" vertex="1" parent="123">
                    <mxGeometry x="440" y="17.5" width="30" height="25" as="geometry"/>
                </mxCell>
                <mxCell id="105" value="" style="verticalLabelPosition=bottom;verticalAlign=top;html=1;shape=mxgraph.basic.rect;fillColor2=none;strokeWidth=1;size=20;indent=5;labelBorderColor=default;fontSize=36;fontColor=#333333;fillColor=none;" vertex="1" parent="123">
                    <mxGeometry x="370" width="60" height="60" as="geometry"/>
                </mxCell>
                <mxCell id="106" value="" style="verticalLabelPosition=bottom;verticalAlign=top;html=1;shape=mxgraph.basic.tick;labelBorderColor=default;fontSize=36;fontColor=#333333;fillColor=none;" vertex="1" parent="123">
                    <mxGeometry x="385" y="12.5" width="30" height="35" as="geometry"/>
                </mxCell>
                <mxCell id="107" value="" style="verticalLabelPosition=bottom;verticalAlign=top;html=1;shape=mxgraph.basic.rect;fillColor2=none;strokeWidth=1;size=20;indent=5;labelBorderColor=default;fontSize=36;fontColor=#333333;fillColor=none;" vertex="1" parent="123">
                    <mxGeometry x="310" width="60" height="60" as="geometry"/>
                </mxCell>
                <mxCell id="108" value="" style="sketch=0;pointerEvents=1;shadow=0;dashed=0;html=1;strokeColor=none;fillColor=#505050;labelPosition=center;verticalLabelPosition=bottom;verticalAlign=top;outlineConnect=0;align=center;shape=mxgraph.office.concepts.writing_pencil;labelBorderColor=default;fontSize=36;fontColor=#333333;" vertex="1" parent="123">
                    <mxGeometry x="320" y="10" width="40" height="40" as="geometry"/>
                </mxCell>
                <mxCell id="26" value="" style="rounded=0;whiteSpace=wrap;html=1;" vertex="1" parent="1">
                    <mxGeometry x="90" y="360" width="500" height="60" as="geometry"/>
                </mxCell>
                <mxCell id="27" value="" style="ellipse;whiteSpace=wrap;html=1;aspect=fixed;fillColor=#0000FF;fontColor=#ffffff;strokeColor=#2D7600;" vertex="1" parent="1">
                    <mxGeometry x="100" y="370" width="40" height="40" as="geometry"/>
                </mxCell>
                <mxCell id="28" value="&lt;font style=&quot;font-size: 24px;&quot;&gt;Personal Growth&lt;br&gt;&lt;/font&gt;" style="text;html=1;strokeColor=none;fillColor=none;align=left;verticalAlign=middle;whiteSpace=wrap;rounded=0;labelBorderColor=default;" vertex="1" parent="1">
                    <mxGeometry x="160" y="375" width="300" height="30" as="geometry"/>
                </mxCell>
                <mxCell id="29" value="" style="rounded=0;whiteSpace=wrap;html=1;" vertex="1" parent="1">
                    <mxGeometry x="490" y="370" width="40" height="40" as="geometry"/>
                </mxCell>
                <mxCell id="30" value="" style="sketch=0;pointerEvents=1;shadow=0;dashed=0;html=1;strokeColor=none;fillColor=#505050;labelPosition=center;verticalLabelPosition=bottom;verticalAlign=top;outlineConnect=0;align=center;shape=mxgraph.office.concepts.writing_pencil;labelBorderColor=default;fontSize=24;" vertex="1" parent="1">
                    <mxGeometry x="497.5" y="377.5" width="25" height="25" as="geometry"/>
                </mxCell>
                <mxCell id="131" value="" style="group" vertex="1" connectable="0" parent="1">
                    <mxGeometry x="540" y="370" width="40" height="40" as="geometry"/>
                </mxCell>
                <mxCell id="132" value="" style="verticalLabelPosition=bottom;verticalAlign=top;html=1;shape=mxgraph.basic.x;labelBorderColor=default;fontSize=24;fontColor=#B3B3B3;fillColor=none;" vertex="1" parent="131">
                    <mxGeometry x="5" y="5" width="30" height="30" as="geometry"/>
                </mxCell>
                <mxCell id="133" value="" style="verticalLabelPosition=bottom;verticalAlign=top;html=1;shape=mxgraph.basic.rect;fillColor2=none;strokeWidth=1;size=20;indent=5;labelBorderColor=default;fontSize=24;fontColor=#B3B3B3;fillColor=none;" vertex="1" parent="131">
                    <mxGeometry width="40" height="40" as="geometry"/>
                </mxCell>
                <mxCell id="140" value="" style="group" vertex="1" connectable="0" parent="1">
                    <mxGeometry x="540" y="130" width="40" height="40" as="geometry"/>
                </mxCell>
                <mxCell id="141" value="" style="verticalLabelPosition=bottom;verticalAlign=top;html=1;shape=mxgraph.basic.x;labelBorderColor=default;fontSize=24;fontColor=#B3B3B3;fillColor=none;" vertex="1" parent="140">
                    <mxGeometry x="5" y="5" width="30" height="30" as="geometry"/>
                </mxCell>
                <mxCell id="142" value="" style="verticalLabelPosition=bottom;verticalAlign=top;html=1;shape=mxgraph.basic.rect;fillColor2=none;strokeWidth=1;size=20;indent=5;labelBorderColor=default;fontSize=24;fontColor=#B3B3B3;fillColor=none;" vertex="1" parent="140">
                    <mxGeometry width="40" height="40" as="geometry"/>
                </mxCell>
            </root>
        </mxGraphModel>
    </diagram>
</mxfile>